<svg width="31" height="31" viewBox="0 0 31 31" fill="none" xmlns="http://www.w3.org/2000/svg">
<g clip-path="url(#clip0_2122_255)">
<path d="M7.86093 30.8903C6.66187 30.8769 5.47409 30.657 4.34973 30.2402C3.52866 29.9367 2.78581 29.4535 2.17547 28.826C1.54628 28.2169 1.06241 27.4739 0.759804 26.6521C0.343356 25.5278 0.123751 24.3401 0.110627 23.1412C0.0185392 21.1481 0 20.5503 0 15.5C0 10.4497 0.0203627 9.85405 0.109716 7.85941C0.124432 6.66098 0.344307 5.47392 0.759804 4.34973C1.06389 3.52853 1.54707 2.78538 2.17425 2.17425C2.78384 1.54563 3.52704 1.06221 4.34881 0.759804C5.47318 0.343011 6.66096 0.123097 7.86002 0.109716C9.85374 0.0185392 10.4525 0 15.5 0C20.5475 0 21.146 0.0203627 23.1406 0.109716C24.3393 0.124328 25.5267 0.344205 26.6512 0.759804C27.4726 1.06261 28.2156 1.54586 28.8254 2.17395C29.4537 2.784 29.9372 3.52719 30.2402 4.34881C30.6571 5.47316 30.8771 6.66094 30.8906 7.86002C30.9818 9.85466 31.0003 10.4519 31.0003 15.5006C31.0003 20.5494 30.9818 21.1466 30.8906 23.1412C30.8761 24.3401 30.6561 25.5276 30.2402 26.6521C29.9256 27.4676 29.4437 28.2081 28.8256 28.8261C28.2074 29.4441 27.4667 29.9258 26.6512 30.2402C25.5268 30.6571 24.3391 30.8771 23.14 30.8906C21.1472 30.9818 20.5481 31.0003 15.4994 31.0003C10.4506 31.0003 9.85344 30.9827 7.86063 30.8906" fill="url(#paint0_radial_2122_255)"/>
<path d="M7.86093 30.8903C6.66187 30.8769 5.47409 30.657 4.34973 30.2402C3.52866 29.9367 2.78581 29.4535 2.17547 28.826C1.54628 28.2169 1.06241 27.4739 0.759804 26.6521C0.343356 25.5278 0.123751 24.3401 0.110627 23.1412C0.0185392 21.1481 0 20.5503 0 15.5C0 10.4497 0.0203627 9.85405 0.109716 7.85941C0.124432 6.66098 0.344307 5.47392 0.759804 4.34973C1.06389 3.52853 1.54707 2.78538 2.17425 2.17425C2.78384 1.54563 3.52704 1.06221 4.34881 0.759804C5.47318 0.343011 6.66096 0.123097 7.86002 0.109716C9.85374 0.0185392 10.4525 0 15.5 0C20.5475 0 21.146 0.0203627 23.1406 0.109716C24.3393 0.124328 25.5267 0.344205 26.6512 0.759804C27.4726 1.06261 28.2156 1.54586 28.8254 2.17395C29.4537 2.784 29.9372 3.52719 30.2402 4.34881C30.6571 5.47316 30.8771 6.66094 30.8906 7.86002C30.9818 9.85466 31.0003 10.4519 31.0003 15.5006C31.0003 20.5494 30.9818 21.1466 30.8906 23.1412C30.8761 24.3401 30.6561 25.5276 30.2402 26.6521C29.9256 27.4676 29.4437 28.2081 28.8256 28.8261C28.2074 29.4441 27.4667 29.9258 26.6512 30.2402C25.5268 30.6571 24.3391 30.8771 23.14 30.8906C21.1472 30.9818 20.5481 31.0003 15.4994 31.0003C10.4506 31.0003 9.85344 30.9827 7.86063 30.8906" fill="url(#paint1_radial_2122_255)"/>
<path d="M11.6939 15.5659C11.694 14.8067 11.9192 14.0645 12.3411 13.4332C12.7629 12.802 13.3625 12.31 14.064 12.0195C14.7655 11.729 15.5374 11.653 16.2821 11.8013C17.0267 11.9495 17.7107 12.3152 18.2475 12.8521C18.7843 13.389 19.1499 14.0731 19.2979 14.8178C19.4459 15.5625 19.3698 16.3344 19.0791 17.0358C18.7885 17.7372 18.2964 18.3367 17.665 18.7584C17.0336 19.1802 16.2914 19.4052 15.5321 19.4051C14.5141 19.4049 13.5377 19.0004 12.8179 18.2804C12.0981 17.5604 11.6938 16.584 11.6939 15.5659ZM9.61842 15.5659C9.61842 16.7356 9.96525 17.8789 10.6151 18.8514C11.2649 19.8239 12.1885 20.5819 13.269 21.0295C14.3496 21.4771 15.5387 21.5942 16.6858 21.366C17.833 21.1378 18.8867 20.5746 19.7137 19.7476C20.5408 18.9205 21.104 17.8668 21.3322 16.7196C21.5604 15.5725 21.4433 14.3834 20.9957 13.3029C20.5481 12.2223 19.7901 11.2987 18.8176 10.6489C17.8451 9.99906 16.7017 9.65223 15.5321 9.65223C14.7555 9.65219 13.9865 9.80513 13.269 10.1023C12.5515 10.3995 11.8996 10.8351 11.3504 11.3842C10.8013 11.9334 10.3657 12.5853 10.0685 13.3028C9.77132 14.0203 9.61838 14.7893 9.61842 15.5659ZM20.2979 9.41791C20.2978 9.69123 20.3787 9.95845 20.5305 10.1858C20.6822 10.4131 20.898 10.5903 21.1504 10.695C21.4029 10.7997 21.6808 10.8272 21.9489 10.774C22.2169 10.7208 22.4632 10.5893 22.6566 10.3961C22.8499 10.2029 22.9817 9.95676 23.0351 9.68872C23.0885 9.42067 23.0613 9.1428 22.9568 8.89024C22.8523 8.63768 22.6753 8.42177 22.4481 8.26983C22.2209 8.11788 21.9538 8.03671 21.6805 8.03659C21.3141 8.03675 20.9628 8.18231 20.7037 8.44131C20.4446 8.70031 20.2988 9.05155 20.2985 9.41791M10.88 24.9404C10.1497 24.9324 9.42625 24.7987 8.7413 24.5453C8.24456 24.3538 7.79342 24.0605 7.41691 23.6841C7.0404 23.3078 6.74686 22.8568 6.55519 22.3601C6.30165 21.6752 6.168 20.9517 6.1601 20.2214C6.10417 19.0075 6.09323 18.6428 6.09323 15.5675C6.09323 12.4921 6.10539 12.1283 6.1601 10.9132C6.16896 10.183 6.30258 9.45968 6.55519 8.7745C6.74664 8.27761 7.04009 7.82636 7.41662 7.44983C7.79315 7.0733 8.24441 6.77985 8.7413 6.5884C9.42622 6.33487 10.1497 6.20122 10.88 6.1933C12.0939 6.13738 12.4586 6.12644 15.5327 6.12644C18.6069 6.12644 18.9719 6.1383 20.187 6.19361C20.9172 6.20247 21.6405 6.33609 22.3257 6.5887C22.8226 6.78017 23.2738 7.07362 23.6503 7.45015C24.0269 7.82668 24.3203 8.27793 24.5118 8.77481C24.7653 9.45973 24.899 10.1832 24.9069 10.9135C24.9628 12.1292 24.9737 12.4921 24.9737 15.5678C24.9737 18.6435 24.9625 19.0069 24.9069 20.222C24.8984 20.9523 24.7647 21.6756 24.5118 22.3607C24.3201 22.8574 24.0266 23.3084 23.6501 23.6847C23.2736 24.0611 22.8224 24.3544 22.3257 24.5459C21.6408 24.7994 20.9173 24.9331 20.187 24.941C18.9731 24.9969 18.6084 25.0079 15.5327 25.0079C12.457 25.0079 12.0936 24.9966 10.88 24.941M10.7846 4.11965C9.82899 4.13844 8.88353 4.3193 7.98848 4.65454C7.22336 4.95037 6.5285 5.40282 5.94845 5.98287C5.3684 6.56293 4.91595 7.25779 4.62012 8.02291C4.28492 8.91796 4.10406 9.86342 4.08522 10.819C4.02839 12.0468 4.01562 12.4395 4.01562 15.5672C4.01562 18.6948 4.02869 19.0872 4.08522 20.3153C4.10405 21.2709 4.28492 22.2163 4.62012 23.1114C4.91596 23.8765 5.36842 24.5714 5.94847 25.1514C6.52852 25.7315 7.22337 26.1839 7.98848 26.4798C8.88357 26.8149 9.829 26.9957 10.7846 27.0147C12.013 27.0706 12.4051 27.0843 15.5327 27.0843C18.6604 27.0843 19.0528 27.0712 20.2809 27.0147C21.2365 26.9958 22.1819 26.8149 23.077 26.4798C23.8421 26.1839 24.5369 25.7315 25.117 25.1514C25.697 24.5714 26.1495 23.8765 26.4453 23.1114C26.781 22.2165 26.9619 21.2709 26.9802 20.3153C27.0362 19.0866 27.0489 18.6948 27.0489 15.5672C27.0489 12.4395 27.0359 12.0471 26.9802 10.819C26.9615 9.86341 26.7806 8.91795 26.4453 8.02291C26.1495 7.25793 25.6972 6.56318 25.1173 5.98314C24.5374 5.40311 23.8428 4.95058 23.0779 4.65454C22.1829 4.31908 21.2374 4.13821 20.2818 4.11965C19.0537 4.06342 18.6613 4.05005 15.5343 4.05005C12.4072 4.05005 12.0139 4.06312 10.7852 4.11965" fill="white"/>
</g>
<defs>
<radialGradient id="paint0_radial_2122_255" cx="0" cy="0" r="1" gradientUnits="userSpaceOnUse" gradientTransform="translate(2.00619 30.321) scale(39.3585)">
<stop offset="0.09" stop-color="#FA8F21"/>
<stop offset="0.78" stop-color="#D82D7E"/>
</radialGradient>
<radialGradient id="paint1_radial_2122_255" cx="0" cy="0" r="1" gradientUnits="userSpaceOnUse" gradientTransform="translate(21.4727 29.3254) scale(34.6358)">
<stop offset="0.64" stop-color="#8C3AAA" stop-opacity="0"/>
<stop offset="1" stop-color="#8C3AAA"/>
</radialGradient>
<clipPath id="clip0_2122_255">
<rect width="31" height="31" fill="white"/>
</clipPath>
</defs>
</svg>
