<svg width="31" height="21" viewBox="0 0 31 21" fill="none" xmlns="http://www.w3.org/2000/svg">
<g clip-path="url(#clip0_2122_251)">
<path d="M20.6496 10.1941C17.8072 8.72916 15.0857 7.38238 12.3037 5.97626V14.388C15.2312 12.8532 18.3168 11.4477 20.6616 10.1941H20.6496Z" fill="white"/>
<path d="M20.6496 10.1941C17.8072 8.72916 12.3037 5.97626 12.3037 5.97626L19.6413 10.7327C19.6413 10.7327 18.3047 11.4477 20.6496 10.1941Z" fill="#E8E0E0"/>
<path d="M12.8388 20.9729C6.93497 20.8681 4.91853 20.7738 3.6791 20.5275C2.84055 20.3639 2.11185 20.0006 1.57754 19.4736C1.16459 19.0748 0.836189 18.4663 0.581402 17.6221C0.362849 16.9187 0.277729 16.3335 0.156374 14.9041C-0.0293957 11.6781 -0.0736814 9.04054 0.156374 6.0935C0.34617 4.46606 0.438192 2.53409 1.6989 1.40697C2.29417 0.87947 2.98663 0.540003 3.76422 0.399667C4.97892 0.177239 10.154 0.00140381 15.5114 0.00140381C20.8568 0.00140381 26.0434 0.177239 27.2592 0.399667C28.2306 0.575502 29.1417 1.10245 29.6765 1.78194C30.8268 3.52698 30.847 5.6969 30.9637 7.39424C31.012 8.20297 31.012 12.7952 30.9637 13.6039C30.782 16.2864 30.6359 17.2355 30.2229 18.2195C29.9676 18.8407 29.7496 19.1685 29.3723 19.5318C28.7806 20.0909 28.0262 20.4628 27.2098 20.5979C22.1008 20.9685 17.7625 21.0489 12.8388 20.9729ZM20.6624 10.1943C17.82 8.72936 15.0985 7.37094 12.3165 5.96482V14.3772C15.244 12.8424 18.3302 11.4362 20.6745 10.1826L20.6624 10.1943Z" fill="#CD201F"/>
</g>
<defs>
<clipPath id="clip0_2122_251">
<rect width="31" height="21" fill="white"/>
</clipPath>
</defs>
</svg>
